<svg xmlns="http://www.w3.org/2000/svg" width="1200" height="800" viewBox="0 0 1200 800"><defs><linearGradient id="a0" x1="0" y1="0" x2="1" y2="1"><stop offset="0" stop-color="#5b6cf0"/><stop offset="1" stop-color="#9b7bf2"/></linearGradient><linearGradient id="a1" x1="0" y1="0" x2="1" y2="1"><stop offset="0" stop-color="#f0643c"/><stop offset="1" stop-color="#f0b43c"/></linearGradient><linearGradient id="a2" x1="0" y1="0" x2="1" y2="1"><stop offset="0" stop-color="#0f9f9a"/><stop offset="1" stop-color="#4f8df9"/></linearGradient><linearGradient id="a3" x1="0" y1="0" x2="1" y2="1"><stop offset="0" stop-color="#ef5a8a"/><stop offset="1" stop-color="#9b7bf2"/></linearGradient><linearGradient id="a4" x1="0" y1="0" x2="1" y2="1"><stop offset="0" stop-color="#3fb27f"/><stop offset="1" stop-color="#0f9f9a"/></linearGradient><linearGradient id="a5" x1="0" y1="0" x2="1" y2="1"><stop offset="0" stop-color="#f0b43c"/><stop offset="1" stop-color="#ef5a8a"/></linearGradient><clipPath id="w"><rect width="1200" height="800" rx="18"/></clipPath></defs><g clip-path="url(#w)"><rect x="0" y="0" width="1200" height="800" rx="0" fill="#1d2226"/><rect x="60" y="76" width="64" height="64" rx="14" fill="#f0b43c"/><rect x="148" y="84" width="320" height="20" rx="8" fill="#56636a"/><rect x="148" y="118" width="460" height="12" rx="6" fill="#3a444a"/><rect x="60" y="176" width="1080" height="470" rx="14" fill="#171b1e"/><circle cx="104" cy="218" r="13" fill="#3fb27f"/><rect x="134" y="206" width="220" height="12" rx="6" fill="#56636a"/><rect x="134" y="226" width="320" height="10" rx="5" fill="#2b3338"/><rect x="1000" y="206" width="100" height="24" rx="12" fill="#3fb27f" fill-opacity="0.25"/><circle cx="104" cy="282" r="13" fill="#3fb27f"/><rect x="134" y="270" width="267" height="12" rx="6" fill="#56636a"/><rect x="134" y="290" width="351" height="10" rx="5" fill="#2b3338"/><rect x="1000" y="270" width="100" height="24" rx="12" fill="#3fb27f" fill-opacity="0.25"/><circle cx="104" cy="346" r="13" fill="#3fb27f"/><rect x="134" y="334" width="314" height="12" rx="6" fill="#56636a"/><rect x="134" y="354" width="382" height="10" rx="5" fill="#2b3338"/><rect x="1000" y="334" width="100" height="24" rx="12" fill="#3fb27f" fill-opacity="0.25"/><circle cx="104" cy="410" r="13" fill="#3fb27f"/><rect x="134" y="398" width="361" height="12" rx="6" fill="#56636a"/><rect x="134" y="418" width="413" height="10" rx="5" fill="#2b3338"/><rect x="1000" y="398" width="100" height="24" rx="12" fill="#3fb27f" fill-opacity="0.25"/><circle cx="104" cy="474" r="13" fill="#3fb27f"/><rect x="134" y="462" width="248" height="12" rx="6" fill="#56636a"/><rect x="134" y="482" width="444" height="10" rx="5" fill="#2b3338"/><rect x="1000" y="462" width="100" height="24" rx="12" fill="#3fb27f" fill-opacity="0.25"/><circle cx="104" cy="538" r="13" fill="#3fb27f"/><rect x="134" y="526" width="295" height="12" rx="6" fill="#56636a"/><rect x="134" y="546" width="475" height="10" rx="5" fill="#2b3338"/><rect x="1000" y="526" width="100" height="24" rx="12" fill="#3fb27f" fill-opacity="0.25"/><circle cx="104" cy="602" r="13" fill="#3fb27f"/><rect x="134" y="590" width="342" height="12" rx="6" fill="#56636a"/><rect x="134" y="610" width="326" height="10" rx="5" fill="#2b3338"/><rect x="1000" y="590" width="100" height="24" rx="12" fill="#3fb27f" fill-opacity="0.25"/><rect x="840" y="688" width="130" height="44" rx="22" fill="#2b3338"/><rect x="988" y="688" width="152" height="44" rx="22" fill="#5b6cf0"/></g><rect x="1" y="1" width="1198" height="798" rx="17" fill="none" stroke="#343d42" stroke-width="2"/><circle cx="30" cy="28" r="8" fill="#ff5f57"/><circle cx="56" cy="28" r="8" fill="#febc2e"/><circle cx="82" cy="28" r="8" fill="#28c840"/><rect x="336" y="320" width="528" height="160" rx="18" fill="#0f1214" fill-opacity="0.95" stroke="#ffffff" stroke-opacity="0.14" stroke-width="2"/><text x="600" y="400" text-anchor="middle" font-family="-apple-system, BlinkMacSystemFont, 'Segoe UI', system-ui, sans-serif" font-size="40" font-weight="600" fill="#f5f7f4">Find Missing Files</text><text x="600" y="444.8" text-anchor="middle" font-family="-apple-system, BlinkMacSystemFont, 'Segoe UI', system-ui, sans-serif" font-size="21" fill="#9aa8ad">Screenshot coming soon</text></svg>
